<?xml version="1.0" encoding="UTF-8"?>
<!DOCTYPE svg  PUBLIC '-//W3C//DTD SVG 1.1//EN'  'http://www.w3.org/Graphics/SVG/1.1/DTD/svg11.dtd'>
<svg enable-background="new 0 0 50 50" version="1.1" viewBox="0 0 50 50" xml:space="preserve" xmlns="http://www.w3.org/2000/svg">
<g fill="#FFF">
<path d="m48.813 17.17l-4.37-5.855 2.347-6.919c0.114-0.338 0.028-0.71-0.225-0.963-0.253-0.252-0.627-0.339-0.963-0.224l-6.919 2.346-5.853-4.369c-0.287-0.213-0.667-0.246-0.986-0.083-0.317 0.161-0.515 0.49-0.512 0.846l0.07 5.612c0.647 0.286 1.275 0.603 1.888 0.948l-0.061-4.687 4.729 3.529c0.247 0.184 0.568 0.234 0.861 0.136l5.588-1.896-1.896 5.589c-0.1 0.292-0.048 0.613 0.136 0.86l3.527 4.729-4.686-0.06c0.347 0.61 0.661 1.239 0.949 1.885l5.611 0.072c0.361-8e-3 0.685-0.193 0.847-0.511 0.163-0.317 0.131-0.699-0.082-0.985z"/>
<path d="m32.909 10.498l-4.818 3.407 5.635 1.751c0.295 0.091 0.525 0.322 0.616 0.617l1.753 5.635 3.406-4.818c0.178-0.252 0.46-0.406 0.775-0.396l1.214 0.016c-1.938-3.423-4.777-6.264-8.2-8.202l0.015 1.213c4e-3 0.309-0.146 0.599-0.396 0.777z"/>
<path d="m36.528 24.538c-0.178 0.251-0.465 0.396-0.766 0.396-0.049 0-0.097-4e-3 -0.146-0.011-0.352-0.056-0.641-0.307-0.746-0.647l-2.171-6.977-6.976-2.168c-0.34-0.106-0.591-0.396-0.647-0.748-0.056-0.353 0.093-0.706 0.384-0.911l5.966-4.219-0.023-1.692c-2.677-1.188-5.638-1.852-8.757-1.852-11.954 0-21.645 9.69-21.645 21.645 0 11.956 9.69 21.646 21.645 21.646s21.646-9.69 21.646-21.646c0-3.118-0.665-6.08-1.852-8.759l-1.693-0.021-4.219 5.964zm-7.852-4.979c0.486-0.487 1.277-0.487 1.766 0 0.488 0.487 0.488 1.278 0 1.765l-13.827 13.825c-0.243 0.244-0.563 0.366-0.882 0.366-0.32 0-0.641-0.122-0.883-0.366-0.488-0.486-0.488-1.277 0-1.765l13.826-13.825zm-22.183 15.952c-0.244 0.244-0.563 0.365-0.883 0.365-0.319 0-0.639-0.121-0.883-0.365-0.487-0.487-0.487-1.277 0-1.766l16.861-16.86c0.485-0.488 1.277-0.488 1.765 0 0.487 0.487 0.487 1.278 0 1.766l-16.86 16.86zm26.62-7.1l-16.859 16.861c-0.243 0.244-0.563 0.365-0.882 0.365-0.32 0-0.641-0.121-0.884-0.365-0.487-0.487-0.487-1.278 0-1.766l16.86-16.86c0.487-0.488 1.277-0.488 1.765 0 0.49 0.487 0.49 1.278 0 1.765z"/>
</g>
</svg>