<?xml version="1.0" encoding="utf-8"?>
<!DOCTYPE svg PUBLIC "-//W3C//DTD SVG 1.1//EN" "http://www.w3.org/Graphics/SVG/1.1/DTD/svg11.dtd">
<svg version="1.1" id="Calque_1" xmlns="http://www.w3.org/2000/svg" xmlns:xlink="http://www.w3.org/1999/xlink" x="0px" y="0px"
     width="200px" height="200px" viewBox="0 0 200 200" enable-background="new 0 0 200 200" xml:space="preserve">
<g>
	<g>
		<path fill="#FFFFFF" d="M194.271,63.311l-15.741-21.095l8.453-24.925c0.411-1.218,0.101-2.562-0.809-3.471
			c-0.911-0.907-2.258-1.221-3.471-0.808l-24.924,8.452L136.688,5.724c-1.034-0.767-2.402-0.886-3.551-0.301
			c-1.143,0.581-1.856,1.764-1.844,3.048l0.256,20.219c2.33,1.031,4.593,2.172,6.798,3.416l-0.217-16.885l17.038,12.714
			c0.89,0.662,2.048,0.844,3.1,0.49l20.132-6.828l-6.826,20.133c-0.359,1.051-0.173,2.211,0.487,3.102l12.711,17.037l-16.883-0.216
			c1.249,2.198,2.385,4.463,3.421,6.79l20.215,0.259c1.3-0.031,2.465-0.697,3.051-1.841
			C195.153,65.717,195.036,64.34,194.271,63.311z"/>
		<path fill="#FFFFFF" d="M136.975,39.272l-17.357,12.274l20.299,6.31c1.063,0.33,1.893,1.161,2.22,2.222l6.315,20.302
			l12.271-17.358c0.641-0.906,1.655-1.461,2.796-1.426l4.37,0.057c-6.978-12.331-17.213-22.566-29.542-29.547l0.053,4.37
			C138.414,37.586,137.878,38.632,136.975,39.272z"/>
		<path fill="#FFFFFF" d="M150.014,89.854c-0.64,0.904-1.673,1.427-2.757,1.427c-0.177,0-0.351-0.014-0.527-0.041
			c-1.269-0.201-2.311-1.104-2.689-2.33l-7.82-25.135l-25.133-7.813c-1.225-0.383-2.129-1.426-2.33-2.693
			c-0.2-1.27,0.335-2.541,1.383-3.283l21.49-15.198l-0.081-6.098c-9.647-4.276-20.315-6.67-31.551-6.67
			c-43.067,0-77.977,34.91-77.977,77.98c0,43.069,34.909,77.98,77.977,77.98c43.071,0,77.98-34.911,77.98-77.98
			c0-11.236-2.393-21.907-6.669-31.558l-6.102-0.076L150.014,89.854z M121.722,71.914c1.754-1.756,4.605-1.756,6.359,0
			c1.76,1.756,1.76,4.605,0,6.36l-49.808,49.811c-0.876,0.879-2.028,1.317-3.179,1.317c-1.151,0-2.305-0.438-3.18-1.317
			c-1.755-1.755-1.755-4.604,0-6.36L121.722,71.914z M41.809,129.386c-0.881,0.878-2.028,1.317-3.182,1.317
			c-1.15,0-2.303-0.439-3.179-1.317c-1.758-1.757-1.758-4.604,0-6.362l60.741-60.741c1.751-1.757,4.603-1.757,6.358,0
			c1.755,1.755,1.755,4.604,0,6.359L41.809,129.386z M137.711,103.809l-60.739,60.742c-0.878,0.88-2.028,1.319-3.179,1.319
			c-1.151,0-2.304-0.439-3.182-1.319c-1.759-1.756-1.759-4.604,0-6.359l60.741-60.743c1.756-1.756,4.603-1.756,6.358,0
			C139.472,99.203,139.472,102.053,137.711,103.809z"/>
	</g>
	<path fill="none" stroke="#FFFFFF" stroke-width="2" stroke-linecap="round" stroke-miterlimit="10" d="M125.253,6.809"/>
	<path fill="none" stroke="#FFFFFF" stroke-width="2" stroke-linecap="round" stroke-miterlimit="10" d="M192.829,73.466"/>
	<g>
		<path fill="#FFFFFF" d="M99.998,199C45.41,199,1,154.589,1,100.001C1,45.412,45.41,1,99.998,1c8.73,0,17.442,1.159,25.894,3.443
			c1.307,0.354,2.079,1.699,1.726,3.003c-0.354,1.306-1.696,2.076-3.003,1.727c-8.034-2.172-16.317-3.274-24.616-3.274
			c-51.886,0-94.1,42.215-94.1,94.103c0,51.886,42.214,94.101,94.1,94.101c51.888,0,94.104-42.215,94.104-94.101
			c0-8.725-1.222-17.426-3.628-25.862c-0.372-1.302,0.381-2.657,1.683-3.027c1.305-0.373,2.657,0.383,3.026,1.682
			c2.534,8.875,3.817,18.029,3.817,27.208C199,154.589,154.588,199,99.998,199z"/>
	</g>
</g>
</svg>
