<svg xmlns="http://www.w3.org/2000/svg" width="200" height="280"><path fill="#e0e1d6" d="M0 0v220h200V39.286L150 0z"/><path fill="#d4d4cc" d="M150 0v39.286l50-.003z"/><path fill="#d8a93d" d="M0 220h200v60H0z"/><path fill="#d8a93a" d="M159.133 99.48a10.66 10.66 0 0 0 10.647-10.647 10.66 10.66 0 0 0-10.647-10.647c-4.828 0-8.91 3.234-10.21 7.647h-34.13v-11.8h-29.6v11.8h-34.13c-1.3-4.414-5.38-7.647-10.21-7.647A10.66 10.66 0 0 0 30.22 88.832a10.66 10.66 0 0 0 10.647 10.647c4.83 0 8.9-3.234 10.21-7.647h16.757a56.52 56.52 0 0 0-4.377 2.041c-10.605 5.54-16.675 13.277-17.75 22.5H33.72v29.586H63.3v-29.586H51.758C53.752 103.9 68.133 96.04 85.205 93.12v10.5h29.6V92.915c7.353 1.166 14.005 3.248 19.432 6.138 5.86 3.12 12.712 8.583 14.02 17.32H136.7v29.586h29.58v-29.586h-11.977c-1.277-11.514-9.866-19.598-21.47-24.54h16.09c1.3 4.413 5.382 7.647 10.2 7.647zm0-15.295c2.563 0 4.647 2.085 4.647 4.647s-2.085 4.647-4.647 4.647-4.646-2.085-4.646-4.647 2.083-4.647 4.646-4.647zM40.867 93.48c-2.563 0-4.647-2.085-4.647-4.647s2.085-4.647 4.647-4.647 4.646 2.085 4.646 4.647-2.084 4.647-4.646 4.647zM57.3 139.96H39.72v-17.586H57.3v17.586zm102.98 0H142.7v-17.586h17.58v17.586zm-51.485-42.337h-17.6v-17.58h17.6v17.58z"/></svg>