<svg xmlns="http://www.w3.org/2000/svg" width="200" height="280"><path fill="#e0e1d6" d="M0 0v220h200V39.286L150 0z"/><path fill="#d4d4cc" d="M150 0v39.286l50-.003z"/><path fill="#46abcb" d="M0 220h200v60H0z"/><path d="M76.177 149.947c-5.396-1.52-9.228-3.943-11.497-7.264s-3.403-7.332-3.403-12.036v-8.508c0-3.1-.713-5.513-2.138-7.242s-3.604-2.594-6.537-2.594v-6.1c2.933 0 5.1-.85 6.537-2.553s2.138-4.115 2.138-7.242v-8.55c0-4.73 1.134-8.75 3.403-12.057s6.1-5.72 11.497-7.243l1.66 4.856c-3.044.97-5.202 2.705-6.475 5.2s-1.9 5.582-1.9 9.234v8.55c0 2.905-.588 5.465-1.764 7.678s-2.94 3.943-5.292 5.188c2.352 1.273 4.115 3.023 5.292 5.25s1.764 4.767 1.764 7.616v8.508c0 3.652.636 6.716 1.9 9.193s3.43 4.213 6.475 5.2l-1.66 4.9zm45.82-4.897c3.016-.996 5.174-2.733 6.475-5.2s1.95-5.54 1.95-9.193v-8.508c0-2.96.623-5.547 1.868-7.76s3.168-3.915 5.77-5.105c-2.6-1.134-4.523-2.808-5.77-5.022s-1.868-4.828-1.868-7.844v-8.55c0-3.652-.65-6.73-1.95-9.234s-3.46-4.24-6.475-5.2l1.702-4.856c5.367 1.522 9.193 3.937 11.475 7.243s3.425 7.325 3.425 12.057v8.55c0 3.127.698 5.54 2.097 7.242s3.6 2.553 6.578 2.553v6.1c-2.988 0-5.182.865-6.578 2.594s-2.097 4.144-2.097 7.242v8.508c0 4.704-1.142 8.716-3.425 12.036s-6.107 5.742-11.475 7.264l-1.702-4.9z" fill="#4bbdd8"/></svg>