<svg xmlns="http://www.w3.org/2000/svg" width="200" height="280"><path fill="#e0e1d6" d="M0 0v220h200V39.286L150 0z"/><path fill="#d4d4cc" d="M150 0v39.286l50-.003z"/><g fill="#5bc6ca"><path stroke="#5bc6ca" stroke-linejoin="round" stroke-miterlimit="10" d="M141.81 54.795L91.736 70.12a3.33 3.33 0 0 0-2.303 3.169v65.54c-3.512-2.432-8.003-3.753-12.713-3.753-4.982 0-9.714 1.492-13.324 4.193-3.874 2.92-6 6.87-6 11.162s2.136 8.246 6 11.164c3.6 2.704 8.322 4.2 13.324 4.2 5.008 0 9.717-1.495 13.322-4.2 3.88-2.918 6.014-6.87 6.014-11.164V98.22l45.752-14.42V54.795zm-65.09 104.37c-6.896 0-12.708-3.998-12.708-8.734s5.813-8.732 12.708-8.732 12.713 4 12.713 8.732c.001 4.763-5.817 8.734-12.713 8.734zm19.337-67.918V75.692l40.98-13.216V78.03l-40.98 13.217z"/><path d="M0 220h200v60H0z"/></g></svg>