<svg xmlns="http://www.w3.org/2000/svg" width="200" height="280"><path fill="#e0e1d6" d="M0 0v220.396h200V39.356L150 0z"/><path fill="#d4d4cc" d="M150 0v39.356l50-.002z"/><path d="M0 220h200v60H0zM94.337 58.587c-.454.146-6.154 7.95.446 14.554 4.396-9.57-.244-14.615-.446-14.554M97.15 96.9a317.53 317.53 0 0 1-12.382 34.233c9.672-3.67 20.195-6.874 30.072-9.14-6.248-7.096-12.494-15.96-17.7-25.092m34.582 29.786c3.77 2.837 4.7 4.272 7.164 4.272 1.082 0 4.172-.045 5.598-1.995.693-.948.963-1.554 1.063-1.873-.564-.298-1.324-.9-5.44-.9-2.343.001-5.278.1-8.386.487m-63.13 20.1c-9.896 5.432-13.928 9.898-14.216 12.418-.047.418-.172 1.514 1.992 3.13.694-.215 4.72-2 12.224-15.55m-12.326 23.197c-1.6 0-3.157-.512-4.478-1.477-4.818-3.54-5.468-7.475-5.162-10.154.84-7.36 10.16-15.078 27.708-22.938 6.963-14.918 13.6-33.3 17.538-48.657-4.618-9.83-9.1-22.584-5.84-30.067 1.146-2.62 2.584-4.633 5.25-5.504 1.06-.34 3.726-.77 4.706-.77 2.43 0 4.763 2.87 5.886 4.736 2.1 3.463 2.1 7.496 1.77 11.387-.32 3.78-.97 7.538-1.72 11.253-.547 2.73-1.166 5.45-1.826 8.16 6.24 12.594 15.076 25.43 23.548 34.218 6.072-1.07 11.295-1.614 15.55-1.614 7.242 0 11.64 1.65 13.43 5.05 1.488 2.814.873 6.1-1.807 9.777-2.578 3.527-6.127 5.4-10.275 5.4-5.637 0-12.186-3.477-19.498-10.342-13.135 2.686-28.47 7.472-40.87 12.77-3.87 8.027-7.578 14.494-11.033 19.24-4.734 6.515-8.827 9.544-12.88 9.544" fill="#db5c5c"/></svg>