<svg xmlns="http://www.w3.org/2000/svg" width="200" height="280"><path fill="#e0e1d6" d="M0 0v220h200V39.286L150 0z"/><path fill="#d4d4cc" d="M150 0v39.286l50-.003z"/><path d="M59.763 64.378H24.52a3 3 0 1 1 0-6h35.24a3 3 0 0 1 .001 6zm-17.62 38.096H24.52a3 3 0 1 1 0-6h17.62a3 3 0 0 1 .001 6zm22.62 0H56.43a3 3 0 1 1 0-6h8.333a3 3 0 1 1 0 6zm110.718 0h-94.3a3 3 0 1 1 0-6h94.3a3 3 0 0 1 .001 6zM105 83.43H24.52a3 3 0 1 1 0-6H105a3 3 0 1 1 0 6zm26.2 0h-9.522a3 3 0 1 1 0-6h9.522a3 3 0 1 1 0 6zm44.3 0h-24.766a3 3 0 1 1 0-6h24.766a3 3 0 1 1 0 6zM72.244 121.526H24.52a3 3 0 1 1 0-6h47.723a3 3 0 1 1 0 6zm32.756 0H93.573a3 3 0 1 1 0-6H105a3 3 0 1 1 0 6zm70.48 0h-55.714a3 3 0 1 1 0-6h55.714a3 3 0 1 1 0 6zm0 19.044H24.52a3 3 0 1 1 0-6h150.957a3 3 0 0 1 .001 6zM56.43 159.62h-31.9a3 3 0 1 1 0-6h31.907a3 3 0 0 1 .001 6zm24.76 0h-8.945a3 3 0 1 1 0-6H81.2a3 3 0 1 1 0 6zM0 220h200v60H0z" fill="#01649e"/></svg>