<svg xmlns="http://www.w3.org/2000/svg" width="200" height="280" viewBox="0.5 -1.5 200 280"><path fill="#e0e1d6" d="M.5-1.5v220h200V37.786L150.5-1.5z"/><path fill="#d4d4cc" d="M150.5-1.5v39.286l50-.003z"/><path d="M.5 218.5h200v60H.5zm31.72-148v76h136.556v-76H32.22zm49.527 6h37.5v17.33h-37.5V76.5zm37.5 40.67h-37.5V99.83h37.5v17.338zM38.22 76.5h37.527v17.33H38.22V76.5zm0 23.33h37.527v17.338H38.22V99.83zm37.527 40.67H38.22v-17.33h37.527v17.33zm43.5 0h-37.5v-17.33h37.5v17.33zm43.52 0h-37.52v-17.33h37.52v17.33zm0-23.33h-37.52V99.83h37.52v17.338zm-37.52-23.338V76.5h37.52v17.33h-37.52z" fill="#1b9d48"/></svg>