<?xml version="1.0" encoding="utf-8"?>
<!DOCTYPE svg PUBLIC "-//W3C//DTD SVG 1.1//EN" "http://www.w3.org/Graphics/SVG/1.1/DTD/svg11.dtd">
<svg version="1.1" id="bg1" xmlns="http://www.w3.org/2000/svg" xmlns:xlink="http://www.w3.org/1999/xlink" x="0" y="0" width="1000px" height="1000px" viewBox="0 0 1000 1000" enable-background="new 0 0 1000 1000" xml:space="preserve">
<path opacity=".4" fill="#FFF" d="M559.974,155.093H0v55h559.974c15.188,0,27.5-12.312,27.5-27.5 S575.162,155.093,559.974,155.093z"/>
<path opacity=".2" fill="#FFF" d="M824.471,419.021H0V500h824.471c22.361,0,40.488-18.127,40.488-40.489 S846.832,419.021,824.471,419.021z"/>
<path opacity=".4" fill="#FFF" d="M641.216,500H0v62.979h641.216c17.391,0,31.489-14.098,31.489-31.489 C672.705,514.098,658.607,500,641.216,500z"/>
<path opacity=".4" fill="#FFF" d="M332.577,856.977H1000V692.936H332.577c-45.298,0-82.018,36.721-82.018,82.021 C250.56,820.257,287.279,856.977,332.577,856.977z"/>
<path opacity=".4" fill="#FFF" d="M472.137,333.435H0v116.043h472.137c32.044,0,58.02-25.977,58.02-58.021 C530.156,359.41,504.181,333.435,472.137,333.435z"/>
<path opacity=".4" fill="#FFF" d="M1000,210.093H706.521c-41.555,0-75.24,33.686-75.24,75.242 c0,41.558,33.686,75.243,75.24,75.243H1000V210.093z"/>
<path opacity=".1" fill="#FFF" d="M1000,637.936H586.998c-15.188,0-27.5,12.312-27.5,27.5s12.312,27.5,27.5,27.5H1000V637.936z"/>
</svg>
