<svg xmlns="http://www.w3.org/2000/svg" width="430.389008" height="300" viewBox="0 0 430.389 300">
    <g fill="#fff">
        <path d="M427.39 3v294H3V3h424.39m3-3H0v300h430.39V0z"/>
        <path d="M0 0v122.56h37.845V90.236h355.267v32.323h37.277V0H0zm167.074 26.923h96.24c2.762 0 5 2.24 5 5s-2.238 5-5 5h-96.24c-2.76 0-5-2.24-5-5s2.24-5 5-5zM276.94 57.125H153.447c-2.76 0-5-2.24-5-5s2.24-5 5-5H276.94c2.762 0 5 2.24 5 5s-2.238 5-5 5zm55.83-38.952h-19.385c-1.104 0-2-.896-2-2s.896-2 2-2h19.385c1.104 0 2 .896 2 2s-.896 2-2 2zm30.17 0h-19.386c-1.104 0-2-.896-2-2s.896-2 2-2h19.386c1.104 0 2 .896 2 2s-.896 2-2 2zm30.17 0h-19.387c-1.104 0-2-.896-2-2s.896-2 2-2h19.387c1.104 0 2 .896 2 2s-.896 2-2 2z"/>
    </g>
    <g fill="none" stroke="#fff" stroke-linecap="round" stroke-miterlimit="10">
        <path stroke-width="8" d="M180.288 108.22h69.57"/>
        <path d="M61.638 138.393H225.5m15.615 0h57.146m11.25 0h59.008m-219.752 10.1h97.16m12.21 0h23.262" stroke-width="4"/>
        <path d="M178.642 178.667h72.86" stroke-width="8"/>
    </g>
    <path stroke="#fff" stroke-width="8" stroke-miterlimit="10" d="M172.274994 208.841995h85.597v60.605h-85.597zm-110.877994 0h85.597v60.605H61.397zm221.756992 0h85.597v60.605h-85.597z" fill="#fff" stroke-linejoin="round"/>
</svg>