<svg xmlns="http://www.w3.org/2000/svg" width="430.389008" height="300" viewBox="0 0 430.389 300">
    <style><![CDATA[.B{stroke:#fff}.C{stroke-miterlimit:10}.D{stroke-width:8}.E{stroke-linecap:round}]]></style>
    <path fill="#fff" d="M427.39 3v72.523H3V3h424.39m3-3H0v78.523h430.39V0z"/>
    <g fill="none" class="B C E">
        <path d="M190.055 115.638h74.856" class="D"/>
        <path d="M190.055 142.558H212.3m18.034 0h10.522m20.744 0h119.037m-190.582-10.174H291.65m21.044 0h12.02m24.646 0h31.267m-190.572 20.352h60.242m26.93 0h14.424m18.64 0h70.335m-190.572 10.172h190.572m-190.572 10.18h40.28m19.962 0H261.6" stroke-width="4"/>
    </g>
    <g fill="#fff">
        <path d="M0 76.517V298.5h140.292V76.517H0zm70.146 33.417c18.748 0 34 15.392 34 34.31s-15.252 34.3-34 34.3-34.002-15.39-34.002-34.3 15.254-34.31 34.002-34.31zm18.33 107.383c0 1.114-.896 2.02-2 2.02H81.5c-1.104 0-2-.904-2-2.02s.896-2.02 2-2.02h4.986c1.105 0 2 .905 2 2.02zm-57.854 18.518H55.61c1.104 0 2 .904 2 2.02s-.896 2.02-2 2.02H30.623c-1.104 0-2-.904-2-2.02s.896-2.02 2-2.02zm-2-8.252c0-1.115.896-2.02 2-2.02h9.227c1.104 0 2 .903 2 2.02s-.896 2.018-2 2.018h-9.227c-1.104 0-2-.903-2-2.018zm16.705 0c0-1.115.896-2.02 2-2.02h4.365c1.104 0 2 .903 2 2.02s-.896 2.018-2 2.018h-4.365c-1.104 0-2-.903-2-2.018zm-14.705-8.248c-1.104 0-2-.904-2-2.02s.896-2.02 2-2.02h42.14c1.104 0 2 .904 2 2.02s-.896 2.02-2 2.02h-42.14zm-4-18.918c0-2.23 1.79-4.036 4-4.036h31.05c2.21 0 4 1.808 4 4.036s-1.79 4.037-4 4.037h-31.05c-2.21.001-4-1.807-4-4.037zM47.328 260.4H30.623c-1.104 0-2-.904-2-2.02s.896-2.02 2-2.02h16.705c1.104 0 2 .904 2 2.02s-.895 2.02-2 2.02zm12.967 0H55.61c-1.104 0-2-.904-2-2.02s.896-2.02 2-2.02h4.686c1.104 0 2 .904 2 2.02s-.896 2.02-2 2.02zm49.373-10.272H30.623c-1.104 0-2-.903-2-2.018s.896-2.02 2-2.02h79.045c1.104 0 2 .904 2 2.02s-.896 2.018-2 2.018zm-44.89-12.284c0-1.114.896-2.02 2-2.02h5.982c1.104 0 2 .904 2 2.02s-.896 2.02-2 2.02H66.78c-1.104 0-2-.905-2-2.02zm44.89 2.02H80.494c-1.104 0-2-.904-2-2.02s.896-2.02 2-2.02h29.174c1.104 0 2 .904 2 2.02s-.896 2.02-2 2.02zm0-10.272H60.295c-1.104 0-2-.903-2-2.018s.896-2.02 2-2.02h49.373c1.104 0 2 .903 2 2.02s-.896 2.018-2 2.018zm0-10.266H96.7c-1.104 0-2-.904-2-2.02s.896-2.02 2-2.02h12.97c1.104 0 2 .904 2 2.02s-.896 2.02-2 2.02z"/>
        <path d="M427.39 3v294H3V3h424.39m3-3H0v300h430.39V0z"/>
        <path stroke-linejoin="round" d="M185.345 205.224h59.396v39.044998h-59.396z" class="B C D"/>
    </g>
    <g fill="none" class="E B C">
        <path d="M261.6 205.224h74.856" class="D"/>
        <path d="M261.6 232.144h22.246m18.024 0h10.52m20.735 0h47.502M261.6 221.97h119.037M261.6 242.322h60.243m16.404 0h14.423" stroke-width="4"/>
        <path stroke-width="3" d="M127.194 48.678h176.002"/>
        <path stroke-width="10" d="M167.4 31.344h95.57"/>
    </g>
</svg>