<svg xmlns="http://www.w3.org/2000/svg" width="430.389008" height="300" viewBox="0 0 430.389 300">
    <style><![CDATA[.B{stroke:#fff}.C{stroke-miterlimit:10}.D{stroke-width:8}.E{stroke-width:4}]]></style>
    <g fill="#fff">
        <path d="M427.39 3v294H3V3h424.39m3-3H0v300h430.39V0z"/>
        <path stroke-linejoin="round" d="M62.242 119.529h85.596v60.606H62.242z" class="B C D"/>
    </g>
    <g fill="none" stroke-linecap="round" class="B C">
        <path d="M178.762 119.53h75.38" class="D"/>
        <path d="M178.762 146.72h22.403m18.16 0h10.594m20.88 0h119.873m-191.91-10.276h102.3m21.188 0h12.105m24.82 0h31.487M178.762 157h60.665m27.12 0h14.525m18.77 0h70.83m-191.9 10.276h191.9m-191.9 10.282h40.563m20.102 0H250.8" class="E"/>
        <path d="M177.89 206.675h75.156" class="D"/>
        <path d="M177.9 233.868h22.335m18.105 0h10.562m20.818 0h119.513M177.9 223.6h102.002m21.128 0h12.068m24.744 0h31.392M177.9 244.148h60.484m27.036 0h14.482m18.715 0h70.617M177.9 254.422h191.333M177.9 264.706h40.44m20.045 0h11.336" class="E"/>
        <path d="M65.24 206.675h31.267" class="D"/>
        <path d="M65.24 233.868h9.3m7.532 0h4.396m8.662 0h49.72M65.24 223.6h42.434m8.8 0h5.02m10.296 0h13.06m-79.6 20.558h25.162m11.248 0h6.024m7.786 0h29.38m-79.6 10.276h79.6m-79.6 10.282h16.822m8.34 0h4.718" class="E"/>
        <path stroke-width="5" d="M78.732 85.534h43.033"/>
    </g>
    <path fill="#fff" d="M0 0v96.297h62.242V74.075h75.68v22.222H430.4V0H0zm65.24 45.426c-7.76 0-14.07-6.326-14.07-14.1s6.312-14.1 14.07-14.1 14.07 6.326 14.07 14.1-6.31 14.1-14.07 14.1zm28.49-9.1c-2.76 0-5-2.24-5-5s2.24-5 5-5h96.24c2.76 0 5 2.24 5 5s-2.24 5-5 5H93.73zm100.295 51.71H151c-1.38 0-2.5-1.12-2.5-2.5s1.12-2.5 2.5-2.5h43.035c1.38 0 2.5 1.12 2.5 2.5s-1.12 2.5-2.5 2.5zm66.978 0H217.97c-1.38 0-2.5-1.12-2.5-2.5s1.12-2.5 2.5-2.5h43.032c1.38 0 2.5 1.12 2.5 2.5s-1.12 2.5-2.5 2.5z"/>
</svg>